FILE "Earth 2140 (2001)(Epic)[PPC][RTG].bin" BINARY
  TRACK 01 MODE1/2352
    INDEX 01 00:00:00
  TRACK 02 AUDIO
    PREGAP 00:02:00
    INDEX 01 26:19:55
  TRACK 03 AUDIO
    INDEX 01 31:09:70
  TRACK 04 AUDIO
    INDEX 01 34:06:17
  TRACK 05 AUDIO
    INDEX 01 38:27:34
  TRACK 06 AUDIO
    INDEX 01 45:28:70
  TRACK 07 AUDIO
    INDEX 01 48:58:59
  TRACK 08 AUDIO
    INDEX 01 53:58:27
  TRACK 09 AUDIO
    INDEX 01 57:25:46
  TRACK 10 AUDIO
    INDEX 01 63:11:36
